<svg width="125" height="12" viewBox="0 0 125 12" fill="none" xmlns="http://www.w3.org/2000/svg">
<path d="M6.77 5.946C7.414 6.086 7.90867 6.366 8.254 6.786C8.60867 7.19667 8.786 7.72867 8.786 8.382C8.786 9.222 8.47333 9.87067 7.848 10.328C7.232 10.776 6.31733 11 5.104 11H0.596V1.2H4.824C5.916 1.2 6.76067 1.41933 7.358 1.858C7.96467 2.29667 8.268 2.91733 8.268 3.72C8.268 4.26133 8.13267 4.72333 7.862 5.106C7.60067 5.47933 7.23667 5.75933 6.77 5.946ZM1.632 2.054V5.61H4.754C5.54733 5.61 6.15867 5.46067 6.588 5.162C7.01733 4.854 7.232 4.41067 7.232 3.832C7.232 3.25333 7.01733 2.81467 6.588 2.516C6.15867 2.208 5.54733 2.054 4.754 2.054H1.632ZM5.09 10.146C5.96733 10.146 6.63 9.99667 7.078 9.698C7.526 9.39933 7.75 8.93267 7.75 8.298C7.75 7.07533 6.86333 6.464 5.09 6.464H1.632V10.146H5.09ZM13.5167 3.58C14.478 3.58 15.2154 3.82267 15.7287 4.308C16.242 4.784 16.4987 5.49333 16.4987 6.436V11H15.5467V9.852C15.3227 10.2347 14.9914 10.5333 14.5527 10.748C14.1234 10.9627 13.61 11.07 13.0127 11.07C12.1914 11.07 11.538 10.874 11.0527 10.482C10.5674 10.09 10.3247 9.572 10.3247 8.928C10.3247 8.30267 10.5487 7.79867 10.9967 7.416C11.454 7.03333 12.1774 6.842 13.1667 6.842H15.5047V6.394C15.5047 5.75933 15.3274 5.27867 14.9727 4.952C14.618 4.616 14.1 4.448 13.4187 4.448C12.952 4.448 12.504 4.52733 12.0747 4.686C11.6454 4.83533 11.2767 5.04533 10.9687 5.316L10.5207 4.574C10.894 4.25667 11.342 4.014 11.8647 3.846C12.3874 3.66867 12.938 3.58 13.5167 3.58ZM13.1667 10.286C13.7267 10.286 14.2074 10.16 14.6087 9.908C15.01 9.64667 15.3087 9.27333 15.5047 8.788V7.584H13.1947C11.9347 7.584 11.3047 8.02267 11.3047 8.9C11.3047 9.32933 11.468 9.67 11.7947 9.922C12.1214 10.1647 12.5787 10.286 13.1667 10.286ZM22.2778 11.07C21.5498 11.07 20.8965 10.9113 20.3178 10.594C19.7485 10.2767 19.3005 9.83333 18.9738 9.264C18.6472 8.68533 18.4838 8.03667 18.4838 7.318C18.4838 6.59933 18.6472 5.95533 18.9738 5.386C19.3005 4.81667 19.7485 4.37333 20.3178 4.056C20.8965 3.73867 21.5498 3.58 22.2778 3.58C22.9125 3.58 23.4772 3.706 23.9718 3.958C24.4758 4.20067 24.8725 4.56 25.1618 5.036L24.4198 5.54C24.1772 5.176 23.8692 4.90533 23.4958 4.728C23.1225 4.54133 22.7165 4.448 22.2778 4.448C21.7458 4.448 21.2652 4.56933 20.8358 4.812C20.4158 5.04533 20.0845 5.38133 19.8418 5.82C19.6085 6.25867 19.4918 6.758 19.4918 7.318C19.4918 7.88733 19.6085 8.39133 19.8418 8.83C20.0845 9.25933 20.4158 9.59533 20.8358 9.838C21.2652 10.0713 21.7458 10.188 22.2778 10.188C22.7165 10.188 23.1225 10.0993 23.4958 9.922C23.8692 9.74467 24.1772 9.474 24.4198 9.11L25.1618 9.614C24.8725 10.09 24.4758 10.454 23.9718 10.706C23.4678 10.9487 22.9032 11.07 22.2778 11.07ZM29.7351 7.304L27.9991 8.9V11H27.0051V0.611999H27.9991V7.654L32.3951 3.636H33.6271L30.4771 6.646L33.9211 11H32.7031L29.7351 7.304ZM42.9554 10.552C42.7687 10.72 42.5354 10.8507 42.2554 10.944C41.9847 11.028 41.7001 11.07 41.4014 11.07C40.7107 11.07 40.1787 10.8833 39.8054 10.51C39.4321 10.1367 39.2454 9.60933 39.2454 8.928V4.476H37.9294V3.636H39.2454V2.026H40.2394V3.636H42.4794V4.476H40.2394V8.872C40.2394 9.31067 40.3467 9.64667 40.5614 9.88C40.7854 10.104 41.1027 10.216 41.5134 10.216C41.7187 10.216 41.9147 10.1833 42.1014 10.118C42.2974 10.0527 42.4654 9.95933 42.6054 9.838L42.9554 10.552ZM47.5151 11.07C46.8058 11.07 46.1665 10.9113 45.5971 10.594C45.0278 10.2673 44.5798 9.81933 44.2531 9.25C43.9265 8.68067 43.7631 8.03667 43.7631 7.318C43.7631 6.59933 43.9265 5.95533 44.2531 5.386C44.5798 4.81667 45.0278 4.37333 45.5971 4.056C46.1665 3.73867 46.8058 3.58 47.5151 3.58C48.2245 3.58 48.8638 3.73867 49.4331 4.056C50.0025 4.37333 50.4458 4.81667 50.7631 5.386C51.0898 5.95533 51.2531 6.59933 51.2531 7.318C51.2531 8.03667 51.0898 8.68067 50.7631 9.25C50.4458 9.81933 50.0025 10.2673 49.4331 10.594C48.8638 10.9113 48.2245 11.07 47.5151 11.07ZM47.5151 10.188C48.0378 10.188 48.5045 10.0713 48.9151 9.838C49.3351 9.59533 49.6618 9.25467 49.8951 8.816C50.1285 8.37733 50.2451 7.878 50.2451 7.318C50.2451 6.758 50.1285 6.25867 49.8951 5.82C49.6618 5.38133 49.3351 5.04533 48.9151 4.812C48.5045 4.56933 48.0378 4.448 47.5151 4.448C46.9925 4.448 46.5211 4.56933 46.1011 4.812C45.6905 5.04533 45.3638 5.38133 45.1211 5.82C44.8878 6.25867 44.7711 6.758 44.7711 7.318C44.7711 7.878 44.8878 8.37733 45.1211 8.816C45.3638 9.25467 45.6905 9.59533 46.1011 9.838C46.5211 10.0713 46.9925 10.188 47.5151 10.188ZM60.8245 1.2C62.0752 1.2 63.0552 1.49867 63.7645 2.096C64.4739 2.69333 64.8285 3.51467 64.8285 4.56C64.8285 5.60533 64.4739 6.42667 63.7645 7.024C63.0552 7.612 62.0752 7.906 60.8245 7.906H58.1925V11H57.1565V1.2H60.8245ZM60.7965 6.996C61.7672 6.996 62.5092 6.786 63.0225 6.366C63.5359 5.93667 63.7925 5.33467 63.7925 4.56C63.7925 3.76667 63.5359 3.16 63.0225 2.74C62.5092 2.31067 61.7672 2.096 60.7965 2.096H58.1925V6.996H60.7965ZM69.3663 3.58C70.3276 3.58 71.065 3.82267 71.5783 4.308C72.0916 4.784 72.3483 5.49333 72.3483 6.436V11H71.3963V9.852C71.1723 10.2347 70.841 10.5333 70.4023 10.748C69.973 10.9627 69.4596 11.07 68.8623 11.07C68.041 11.07 67.3876 10.874 66.9023 10.482C66.417 10.09 66.1743 9.572 66.1743 8.928C66.1743 8.30267 66.3983 7.79867 66.8463 7.416C67.3036 7.03333 68.027 6.842 69.0163 6.842H71.3543V6.394C71.3543 5.75933 71.177 5.27867 70.8223 4.952C70.4676 4.616 69.9496 4.448 69.2683 4.448C68.8016 4.448 68.3536 4.52733 67.9243 4.686C67.495 4.83533 67.1263 5.04533 66.8183 5.316L66.3703 4.574C66.7436 4.25667 67.1916 4.014 67.7143 3.846C68.237 3.66867 68.7876 3.58 69.3663 3.58ZM69.0163 10.286C69.5763 10.286 70.057 10.16 70.4583 9.908C70.8596 9.64667 71.1583 9.27333 71.3543 8.788V7.584H69.0443C67.7843 7.584 67.1543 8.02267 67.1543 8.9C67.1543 9.32933 67.3176 9.67 67.6443 9.922C67.971 10.1647 68.4283 10.286 69.0163 10.286ZM78.1275 11.07C77.3995 11.07 76.7461 10.9113 76.1675 10.594C75.5981 10.2767 75.1501 9.83333 74.8235 9.264C74.4968 8.68533 74.3335 8.03667 74.3335 7.318C74.3335 6.59933 74.4968 5.95533 74.8235 5.386C75.1501 4.81667 75.5981 4.37333 76.1675 4.056C76.7461 3.73867 77.3995 3.58 78.1275 3.58C78.7621 3.58 79.3268 3.706 79.8215 3.958C80.3255 4.20067 80.7221 4.56 81.0115 5.036L80.2695 5.54C80.0268 5.176 79.7188 4.90533 79.3455 4.728C78.9721 4.54133 78.5661 4.448 78.1275 4.448C77.5955 4.448 77.1148 4.56933 76.6855 4.812C76.2655 5.04533 75.9341 5.38133 75.6915 5.82C75.4581 6.25867 75.3415 6.758 75.3415 7.318C75.3415 7.88733 75.4581 8.39133 75.6915 8.83C75.9341 9.25933 76.2655 9.59533 76.6855 9.838C77.1148 10.0713 77.5955 10.188 78.1275 10.188C78.5661 10.188 78.9721 10.0993 79.3455 9.922C79.7188 9.74467 80.0268 9.474 80.2695 9.11L81.0115 9.614C80.7221 10.09 80.3255 10.454 79.8215 10.706C79.3175 10.9487 78.7528 11.07 78.1275 11.07ZM85.5847 7.304L83.8488 8.9V11H82.8548V0.611999H83.8488V7.654L88.2448 3.636H89.4768L86.3268 6.646L89.7708 11H88.5528L85.5847 7.304ZM93.0182 11.07C92.4209 11.07 91.8469 10.986 91.2962 10.818C90.7549 10.6407 90.3302 10.4213 90.0222 10.16L90.4702 9.376C90.7782 9.61867 91.1655 9.81933 91.6322 9.978C92.0989 10.1273 92.5842 10.202 93.0882 10.202C93.7602 10.202 94.2549 10.0993 94.5722 9.894C94.8989 9.67933 95.0622 9.38067 95.0622 8.998C95.0622 8.72733 94.9735 8.51733 94.7962 8.368C94.6189 8.20933 94.3949 8.09267 94.1242 8.018C93.8535 7.934 93.4942 7.85467 93.0462 7.78C92.4489 7.668 91.9682 7.556 91.6042 7.444C91.2402 7.32267 90.9275 7.122 90.6662 6.842C90.4142 6.562 90.2882 6.17467 90.2882 5.68C90.2882 5.064 90.5449 4.56 91.0582 4.168C91.5715 3.776 92.2855 3.58 93.2002 3.58C93.6762 3.58 94.1522 3.64533 94.6282 3.776C95.1042 3.89733 95.4962 4.06067 95.8042 4.266L95.3702 5.064C94.7635 4.644 94.0402 4.434 93.2002 4.434C92.5655 4.434 92.0849 4.546 91.7582 4.77C91.4409 4.994 91.2822 5.288 91.2822 5.652C91.2822 5.932 91.3709 6.156 91.5482 6.324C91.7349 6.492 91.9635 6.618 92.2342 6.702C92.5049 6.77667 92.8782 6.856 93.3542 6.94C93.9422 7.052 94.4135 7.164 94.7682 7.276C95.1229 7.388 95.4262 7.57933 95.6782 7.85C95.9302 8.12067 96.0562 8.494 96.0562 8.97C96.0562 9.614 95.7855 10.1273 95.2442 10.51C94.7122 10.8833 93.9702 11.07 93.0182 11.07ZM101.768 1.2H102.804V10.104H108.292V11H101.768V1.2ZM109.802 3.636H110.796V11H109.802V3.636ZM110.306 2.026C110.101 2.026 109.928 1.956 109.788 1.816C109.648 1.676 109.578 1.508 109.578 1.312C109.578 1.12533 109.648 0.962 109.788 0.821999C109.928 0.681999 110.101 0.611999 110.306 0.611999C110.511 0.611999 110.684 0.681999 110.824 0.821999C110.964 0.952666 111.034 1.11133 111.034 1.298C111.034 1.50333 110.964 1.676 110.824 1.816C110.684 1.956 110.511 2.026 110.306 2.026ZM115.536 11.07C114.938 11.07 114.364 10.986 113.814 10.818C113.272 10.6407 112.848 10.4213 112.54 10.16L112.988 9.376C113.296 9.61867 113.683 9.81933 114.15 9.978C114.616 10.1273 115.102 10.202 115.606 10.202C116.278 10.202 116.772 10.0993 117.09 9.894C117.416 9.67933 117.58 9.38067 117.58 8.998C117.58 8.72733 117.491 8.51733 117.314 8.368C117.136 8.20933 116.912 8.09267 116.642 8.018C116.371 7.934 116.012 7.85467 115.564 7.78C114.966 7.668 114.486 7.556 114.122 7.444C113.758 7.32267 113.445 7.122 113.184 6.842C112.932 6.562 112.806 6.17467 112.806 5.68C112.806 5.064 113.062 4.56 113.576 4.168C114.089 3.776 114.803 3.58 115.718 3.58C116.194 3.58 116.67 3.64533 117.146 3.776C117.622 3.89733 118.014 4.06067 118.322 4.266L117.888 5.064C117.281 4.644 116.558 4.434 115.718 4.434C115.083 4.434 114.602 4.546 114.276 4.77C113.958 4.994 113.8 5.288 113.8 5.652C113.8 5.932 113.888 6.156 114.066 6.324C114.252 6.492 114.481 6.618 114.752 6.702C115.022 6.77667 115.396 6.856 115.872 6.94C116.46 7.052 116.931 7.164 117.286 7.276C117.64 7.388 117.944 7.57933 118.196 7.85C118.448 8.12067 118.574 8.494 118.574 8.97C118.574 9.614 118.303 10.1273 117.762 10.51C117.23 10.8833 116.488 11.07 115.536 11.07ZM124.289 10.552C124.103 10.72 123.869 10.8507 123.589 10.944C123.319 11.028 123.034 11.07 122.735 11.07C122.045 11.07 121.513 10.8833 121.139 10.51C120.766 10.1367 120.579 9.60933 120.579 8.928V4.476H119.263V3.636H120.579V2.026H121.573V3.636H123.813V4.476H121.573V8.872C121.573 9.31067 121.681 9.64667 121.895 9.88C122.119 10.104 122.437 10.216 122.847 10.216C123.053 10.216 123.249 10.1833 123.435 10.118C123.631 10.0527 123.799 9.95933 123.939 9.838L124.289 10.552Z" fill="black"/>
</svg>
